<svg xmlns="http://www.w3.org/2000/svg" width="256" height="256" viewBox="0 0 100 100"><rect width="100" height="100" rx="20" fill="#7d6ee7"></rect><path d="M27.18 22.55L27.18 22.55Q27.64 22.37 28.58 22.15Q29.52 21.92 30.52 21.92L30.52 21.92Q34.48 21.92 34.48 25.25L34.48 25.25L34.48 63.77Q34.48 67.82 33.30 70.56Q32.14 73.31 30.11 74.98Q28.09 76.64 25.43 77.36Q22.77 78.08 19.89 78.08L19.89 78.08Q14.77 78.08 12.43 76.87Q10.09 75.65 10.09 73.67L10.09 73.67Q10.09 72.41 10.63 71.51Q11.17 70.61 11.62 70.16L11.62 70.16Q12.96 70.79 14.86 71.33Q16.75 71.87 18.82 71.87L18.82 71.87Q22.87 71.87 25.02 69.94Q27.18 68 27.18 63.41L27.18 63.41L27.18 22.55ZM80.82 74.75L57.88 50.99L57.88 77Q57.34 77.18 56.44 77.41Q55.53 77.63 54.45 77.63L54.45 77.63Q50.49 77.63 50.49 74.30L50.49 74.30L50.49 22.55Q50.95 22.37 51.89 22.15Q52.84 21.92 53.91 21.92L53.91 21.92Q57.88 21.92 57.88 25.25L57.88 25.25L57.88 47.66L82.63 22.01Q84.97 22.10 86.13 23.18Q87.31 24.26 87.31 25.70L87.31 25.70Q87.31 26.87 86.67 27.86Q86.04 28.85 84.88 30.02L84.88 30.02L65.44 49.10Q73.63 57.11 79.61 63.37Q85.59 69.62 89.91 73.49L89.91 73.49Q89.73 75.47 88.70 76.59Q87.66 77.72 86.04 77.72L86.04 77.72Q84.52 77.72 83.30 76.87Q82.09 76.01 80.82 74.75L80.82 74.75Z" fill="#fff"></path></svg>